<svg width="438" height="169" viewBox="0 0 438 169" fill="none" xmlns="http://www.w3.org/2000/svg">
<g clip-path="url(#clip0_555_4572)">
<path d="M6 6H487V130.432L245.39 160L6 130.432V6Z" fill="black"/>
<path fill-rule="evenodd" clip-rule="evenodd" d="M137.076 30.0239V33L300.267 -60.0239V-63L137.076 30.0239Z" fill="#161415"/>
<path fill-rule="evenodd" clip-rule="evenodd" d="M137.076 36.0157V39L300.267 -54.0239V-57L137.076 36.0157Z" fill="#161415"/>
<path fill-rule="evenodd" clip-rule="evenodd" d="M137.076 42.0239V45L300.267 -48.0157V-51L137.076 42.0239Z" fill="#161415"/>
<path fill-rule="evenodd" clip-rule="evenodd" d="M137.076 48.0239V51L300.267 -42.0239V-45L137.076 48.0239Z" fill="#161415"/>
<path fill-rule="evenodd" clip-rule="evenodd" d="M137.076 54.0239V57L300.267 -36.0157V-39L137.076 54.0239Z" fill="#161415"/>
<path fill-rule="evenodd" clip-rule="evenodd" d="M137.076 60.0239V63L300.267 -30.0239V-33L137.076 60.0239Z" fill="#161415"/>
<path fill-rule="evenodd" clip-rule="evenodd" d="M137.076 66.016V69L300.267 -24.0159V-27L137.076 66.016Z" fill="#161415"/>
<path fill-rule="evenodd" clip-rule="evenodd" d="M137.076 72.0239V75L300.267 -18.0239V-21L137.076 72.0239Z" fill="#161415"/>
<path fill-rule="evenodd" clip-rule="evenodd" d="M137.076 78.0157V81L300.267 -12.0239V-15L137.076 78.0157Z" fill="#161415"/>
<path fill-rule="evenodd" clip-rule="evenodd" d="M137.076 84.0052V87L300.267 -6.6053V-9.6L137.076 84.0052Z" fill="#161415"/>
<path fill-rule="evenodd" clip-rule="evenodd" d="M137.076 90.0052V93L300.267 -0.605296V-3.6L137.076 90.0052Z" fill="#161415"/>
<path fill-rule="evenodd" clip-rule="evenodd" d="M137.076 30.6239V33.6L300.267 -59.4239V-62.4L137.076 30.6239Z" fill="#161415"/>
<path fill-rule="evenodd" clip-rule="evenodd" d="M137.076 96.0053V99L300.267 5.40299V2.40001L137.076 96.0053Z" fill="#161415"/>
<path fill-rule="evenodd" clip-rule="evenodd" d="M137.076 36.6239V39.6L300.267 -53.4157V-56.4L137.076 36.6239Z" fill="#161415"/>
<path fill-rule="evenodd" clip-rule="evenodd" d="M137.076 102.005V105L300.267 11.3947V8.40001L137.076 102.005Z" fill="#161415"/>
<path fill-rule="evenodd" clip-rule="evenodd" d="M137.076 42.6239V45.6L300.267 -47.4239V-50.4L137.076 42.6239Z" fill="#161415"/>
<path fill-rule="evenodd" clip-rule="evenodd" d="M137.076 107.997V111L300.267 17.3947V14.4L137.076 107.997Z" fill="#161415"/>
<path fill-rule="evenodd" clip-rule="evenodd" d="M137.076 48.597V51.6L300.267 -42.0053V-45L137.076 48.597Z" fill="#161415"/>
<path fill-rule="evenodd" clip-rule="evenodd" d="M137.076 113.424V116.4L300.267 23.3761V20.4L137.076 113.424Z" fill="#161415"/>
<path fill-rule="evenodd" clip-rule="evenodd" d="M137.076 54.6053V57.6L300.267 -36.0053V-39L137.076 54.6053Z" fill="#161415"/>
<path fill-rule="evenodd" clip-rule="evenodd" d="M137.076 119.416V122.4L300.267 29.3761V26.4L137.076 119.416Z" fill="#161415"/>
<path fill-rule="evenodd" clip-rule="evenodd" d="M137.076 60.597V63.6L300.267 -30.0053V-33L137.076 60.597Z" fill="#161415"/>
<path fill-rule="evenodd" clip-rule="evenodd" d="M137.076 125.424V128.4L300.267 35.3843V32.4L137.076 125.424Z" fill="#161415"/>
<path fill-rule="evenodd" clip-rule="evenodd" d="M137.076 66.6053V69.6L300.267 -23.997V-27L137.076 66.6053Z" fill="#161415"/>
<path fill-rule="evenodd" clip-rule="evenodd" d="M137.076 131.424V134.4L300.267 41.3761V38.4L137.076 131.424Z" fill="#161415"/>
<path fill-rule="evenodd" clip-rule="evenodd" d="M137.076 72.0239V75L300.267 -18.0239V-21L137.076 72.0239Z" fill="#161415"/>
<path fill-rule="evenodd" clip-rule="evenodd" d="M137.076 137.424V140.4L300.267 47.3843V44.4L137.076 137.424Z" fill="#161415"/>
<path fill-rule="evenodd" clip-rule="evenodd" d="M137.076 78.0239V81L300.267 -12.0157V-15L137.076 78.0239Z" fill="#161415"/>
<path fill-rule="evenodd" clip-rule="evenodd" d="M137.076 143.424V146.4L300.267 53.3761V50.4L137.076 143.424Z" fill="#161415"/>
<path fill-rule="evenodd" clip-rule="evenodd" d="M137.076 84.0239V87L300.267 -6.02389V-8.99999L137.076 84.0239Z" fill="#161415"/>
<path fill-rule="evenodd" clip-rule="evenodd" d="M137.076 173.416V176.4L300.267 83.3761V80.4L137.076 173.416Z" fill="#161415"/>
<path fill-rule="evenodd" clip-rule="evenodd" d="M137.076 114.016V117L300.267 23.9761V21L137.076 114.016Z" fill="#161415"/>
<path fill-rule="evenodd" clip-rule="evenodd" d="M137.076 179.424V182.4L300.267 89.3844V86.4L137.076 179.424Z" fill="#161415"/>
<path fill-rule="evenodd" clip-rule="evenodd" d="M137.076 120.024V123L300.267 29.9843V27L137.076 120.024Z" fill="#161415"/>
<path fill-rule="evenodd" clip-rule="evenodd" d="M137.076 185.424V188.4L300.267 95.3761V92.4L137.076 185.424Z" fill="#161415"/>
<path fill-rule="evenodd" clip-rule="evenodd" d="M137.076 126.024V129L300.267 35.9761V33L137.076 126.024Z" fill="#161415"/>
<path fill-rule="evenodd" clip-rule="evenodd" d="M137.076 191.424V194.4L300.267 101.384V98.4L137.076 191.424Z" fill="#161415"/>
<path fill-rule="evenodd" clip-rule="evenodd" d="M137.076 132.024V135L300.267 41.9843V39L137.076 132.024Z" fill="#161415"/>
<path fill-rule="evenodd" clip-rule="evenodd" d="M137.076 197.424V200.4L300.267 107.376V104.4L137.076 197.424Z" fill="#161415"/>
<path fill-rule="evenodd" clip-rule="evenodd" d="M137.076 138.024V141L300.267 47.9761V45L137.076 138.024Z" fill="#161415"/>
<path fill-rule="evenodd" clip-rule="evenodd" d="M137.076 203.416V206.4L300.267 113.376V110.4L137.076 203.416Z" fill="#161415"/>
<path fill-rule="evenodd" clip-rule="evenodd" d="M137.076 144.016V147L300.267 53.9761V51L137.076 144.016Z" fill="#161415"/>
<path fill-rule="evenodd" clip-rule="evenodd" d="M137.076 209.405V212.4L300.267 118.803V115.8L137.076 209.405Z" fill="#161415"/>
<path fill-rule="evenodd" clip-rule="evenodd" d="M137.076 150.024V153L300.267 59.9844V57L137.076 150.024Z" fill="#161415"/>
<path fill-rule="evenodd" clip-rule="evenodd" d="M137.076 215.405V218.4L300.267 124.795V121.8L137.076 215.405Z" fill="#161415"/>
<path fill-rule="evenodd" clip-rule="evenodd" d="M137.076 156.024V159L300.267 65.9761V63L137.076 156.024Z" fill="#161415"/>
<path fill-rule="evenodd" clip-rule="evenodd" d="M137.076 221.405V224.4L300.267 130.803V127.8L137.076 221.405Z" fill="#161415"/>
<path fill-rule="evenodd" clip-rule="evenodd" d="M137.076 162.024V165L300.267 71.9843V69L137.076 162.024Z" fill="#161415"/>
<path fill-rule="evenodd" clip-rule="evenodd" d="M137.076 168.005V171L300.267 77.3947V74.4L137.076 168.005Z" fill="#161415"/>
<path fill-rule="evenodd" clip-rule="evenodd" d="M137.076 173.997V177L300.267 83.4027V80.4L137.076 173.997Z" fill="#161415"/>
<path fill-rule="evenodd" clip-rule="evenodd" d="M137.076 180.005V183L300.267 89.3948V86.4L137.076 180.005Z" fill="#161415"/>
<path fill-rule="evenodd" clip-rule="evenodd" d="M137.076 185.997V189L300.267 95.3947V92.4L137.076 185.997Z" fill="#161415"/>
<path fill-rule="evenodd" clip-rule="evenodd" d="M137.076 191.424V194.4L300.267 101.376V98.4L137.076 191.424Z" fill="#161415"/>
<path fill-rule="evenodd" clip-rule="evenodd" d="M137.076 197.424V200.4L300.267 107.376V104.4L137.076 197.424Z" fill="#161415"/>
<path fill-rule="evenodd" clip-rule="evenodd" d="M137.076 203.424V206.4L300.267 113.384V110.4L137.076 203.424Z" fill="#161415"/>
<path fill-rule="evenodd" clip-rule="evenodd" d="M137.076 209.424V212.4L300.267 119.376V116.4L137.076 209.424Z" fill="#161415"/>
<path fill-rule="evenodd" clip-rule="evenodd" d="M137.076 215.416V218.4L300.267 125.376V122.4L137.076 215.416Z" fill="#161415"/>
<path fill-rule="evenodd" clip-rule="evenodd" d="M137.076 221.424V224.4L300.267 131.376V128.4L137.076 221.424Z" fill="#161415"/>
<path fill-rule="evenodd" clip-rule="evenodd" d="M20.416 66.6239V69.6L183.607 -23.4239V-26.4L20.416 66.6239Z" fill="#161415"/>
<path fill-rule="evenodd" clip-rule="evenodd" d="M20.416 72.6157V75.6L183.607 -17.4239V-20.4L20.416 72.6157Z" fill="#161415"/>
<path fill-rule="evenodd" clip-rule="evenodd" d="M20.416 78.6239V81.6L183.607 -11.4157V-14.4L20.416 78.6239Z" fill="#161415"/>
<path fill-rule="evenodd" clip-rule="evenodd" d="M20.416 84.6239V87.6L183.607 -5.42389V-8.39999L20.416 84.6239Z" fill="#161415"/>
<path fill-rule="evenodd" clip-rule="evenodd" d="M20.416 90.6239V93.6L183.607 0.584339V-2.39999L20.416 90.6239Z" fill="#161415"/>
<path fill-rule="evenodd" clip-rule="evenodd" d="M20.416 96.6239V99.6L183.607 6.5761V3.6L20.416 96.6239Z" fill="#161415"/>
<path fill-rule="evenodd" clip-rule="evenodd" d="M20.416 102.616V105.6L183.607 12.5841V9.60001L20.416 102.616Z" fill="#161415"/>
<path fill-rule="evenodd" clip-rule="evenodd" d="M20.416 108.624V111.6L183.607 18.5761V15.6L20.416 108.624Z" fill="#161415"/>
<path fill-rule="evenodd" clip-rule="evenodd" d="M20.416 114.616V117.6L183.607 24.5761V21.6L20.416 114.616Z" fill="#161415"/>
<path fill-rule="evenodd" clip-rule="evenodd" d="M20.416 120.605V123.6L183.607 29.9947V27L20.416 120.605Z" fill="#161415"/>
<path fill-rule="evenodd" clip-rule="evenodd" d="M20.416 126.605V129.6L183.607 35.9947V33L20.416 126.605Z" fill="#161415"/>
<path fill-rule="evenodd" clip-rule="evenodd" d="M20.416 67.2239V70.2L183.607 -22.8239V-25.8L20.416 67.2239Z" fill="#161415"/>
<path fill-rule="evenodd" clip-rule="evenodd" d="M20.416 132.605V135.6L183.607 42.003V39L20.416 132.605Z" fill="#161415"/>
<path fill-rule="evenodd" clip-rule="evenodd" d="M22.9844 137.605V140.6L186.175 47.003V44L22.9844 137.605Z" fill="#161415"/>
<path fill-rule="evenodd" clip-rule="evenodd" d="M41.9668 132.605V135.6L205.158 42.003V39L41.9668 132.605Z" fill="#161415"/>
<path fill-rule="evenodd" clip-rule="evenodd" d="M41.9668 138.605V141.6L205.158 48.003V45L41.9668 138.605Z" fill="#161415"/>
<path fill-rule="evenodd" clip-rule="evenodd" d="M49.959 139.605V142.6L213.15 49.003V46L49.959 139.605Z" fill="#161415"/>
<path fill-rule="evenodd" clip-rule="evenodd" d="M55.9531 142.605V145.6L219.144 52.003V49L55.9531 142.605Z" fill="#161415"/>
<path fill-rule="evenodd" clip-rule="evenodd" d="M64.9453 143.605V146.6L228.136 53.003V50L64.9453 143.605Z" fill="#161415"/>
<path fill-rule="evenodd" clip-rule="evenodd" d="M75.9336 142.605V145.6L239.124 52.003V49L75.9336 142.605Z" fill="#161415"/>
<path fill-rule="evenodd" clip-rule="evenodd" d="M85.9258 142.605V145.6L249.117 52.003V49L85.9258 142.605Z" fill="#161415"/>
<path fill-rule="evenodd" clip-rule="evenodd" d="M94.916 143.605V146.6L258.107 53.003V50L94.916 143.605Z" fill="#161415"/>
<path fill-rule="evenodd" clip-rule="evenodd" d="M100.91 146.605V149.6L264.101 56.003V53L100.91 146.605Z" fill="#161415"/>
<path fill-rule="evenodd" clip-rule="evenodd" d="M106.904 148.962V152L269.751 57.0465V54L106.904 148.962Z" fill="#161415"/>
<path fill-rule="evenodd" clip-rule="evenodd" d="M117.895 148.605V151.6L281.085 58.003V55L117.895 148.605Z" fill="#161415"/>
<path fill-rule="evenodd" clip-rule="evenodd" d="M20.416 73.2239V76.2L183.607 -16.8157V-19.8L20.416 73.2239Z" fill="#161415"/>
<path fill-rule="evenodd" clip-rule="evenodd" d="M20.416 79.2239V82.2L183.607 -10.8239V-13.8L20.416 79.2239Z" fill="#161415"/>
<path fill-rule="evenodd" clip-rule="evenodd" d="M20.416 85.197V88.2L183.607 -5.40529V-8.39999L20.416 85.197Z" fill="#161415"/>
<path fill-rule="evenodd" clip-rule="evenodd" d="M20.416 91.2053V94.2L183.607 0.594709V-2.39999L20.416 91.2053Z" fill="#161415"/>
<path fill-rule="evenodd" clip-rule="evenodd" d="M20.416 97.197V100.2L183.607 6.5947V3.6L20.416 97.197Z" fill="#161415"/>
<path fill-rule="evenodd" clip-rule="evenodd" d="M20.416 103.205V106.2L183.607 12.603V9.60001L20.416 103.205Z" fill="#161415"/>
<path fill-rule="evenodd" clip-rule="evenodd" d="M20.416 108.624V111.6L183.607 18.5761V15.6L20.416 108.624Z" fill="#161415"/>
<path fill-rule="evenodd" clip-rule="evenodd" d="M20.416 114.624V117.6L183.607 24.5843V21.6L20.416 114.624Z" fill="#161415"/>
<path fill-rule="evenodd" clip-rule="evenodd" d="M20.416 120.624V123.6L183.607 30.5761V27.6L20.416 120.624Z" fill="#161415"/>
<path fill-rule="evenodd" clip-rule="evenodd" d="M20.416 222.024V225L183.607 131.976V129L20.416 222.024Z" fill="#161415"/>
<path fill-rule="evenodd" clip-rule="evenodd" d="M20.416 228.024V231L183.607 137.984V135L20.416 228.024Z" fill="#161415"/>
<path fill-rule="evenodd" clip-rule="evenodd" d="M20.416 234.024V237L183.607 143.976V141L20.416 234.024Z" fill="#161415"/>
<path fill-rule="evenodd" clip-rule="evenodd" d="M20.416 240.016V243L183.607 149.976V147L20.416 240.016Z" fill="#161415"/>
<path fill-rule="evenodd" clip-rule="evenodd" d="M20.416 246.005V249L183.607 155.403V152.4L20.416 246.005Z" fill="#161415"/>
<path fill-rule="evenodd" clip-rule="evenodd" d="M20.416 222.597V225.6L183.607 131.995V129L20.416 222.597Z" fill="#161415"/>
<path fill-rule="evenodd" clip-rule="evenodd" d="M20.416 228.024V231L183.607 137.976V135L20.416 228.024Z" fill="#161415"/>
<path fill-rule="evenodd" clip-rule="evenodd" d="M20.416 234.024V237L183.607 143.976V141L20.416 234.024Z" fill="#161415"/>
<path fill-rule="evenodd" clip-rule="evenodd" d="M20.416 240.024V243L183.607 149.984V147L20.416 240.024Z" fill="#161415"/>
<path fill-rule="evenodd" clip-rule="evenodd" d="M20.416 246.024V249L183.607 155.976V153L20.416 246.024Z" fill="#161415"/>
<path fill-rule="evenodd" clip-rule="evenodd" d="M319.275 63.6239V66.6L482.466 -26.4239V-29.4L319.275 63.6239Z" fill="#161415"/>
<path fill-rule="evenodd" clip-rule="evenodd" d="M319.275 69.6157V72.6L482.466 -20.4239V-23.4L319.275 69.6157Z" fill="#161415"/>
<path fill-rule="evenodd" clip-rule="evenodd" d="M319.275 75.6239V78.6L482.466 -14.4157V-17.4L319.275 75.6239Z" fill="#161415"/>
<path fill-rule="evenodd" clip-rule="evenodd" d="M319.275 81.6239V84.6L482.466 -8.42389V-11.4L319.275 81.6239Z" fill="#161415"/>
<path fill-rule="evenodd" clip-rule="evenodd" d="M319.275 87.6239V90.6L482.466 -2.41566V-5.39999L319.275 87.6239Z" fill="#161415"/>
<path fill-rule="evenodd" clip-rule="evenodd" d="M319.275 93.6239V96.6L482.466 3.57611V0.600006L319.275 93.6239Z" fill="#161415"/>
<path fill-rule="evenodd" clip-rule="evenodd" d="M319.275 99.616V102.6L482.466 9.58408V6.60001L319.275 99.616Z" fill="#161415"/>
<path fill-rule="evenodd" clip-rule="evenodd" d="M319.275 105.624V108.6L482.466 15.5761V12.6L319.275 105.624Z" fill="#161415"/>
<path fill-rule="evenodd" clip-rule="evenodd" d="M319.275 111.616V114.6L482.466 21.5761V18.6L319.275 111.616Z" fill="#161415"/>
<path fill-rule="evenodd" clip-rule="evenodd" d="M319.275 117.605V120.6L482.466 26.9947V24L319.275 117.605Z" fill="#161415"/>
<path fill-rule="evenodd" clip-rule="evenodd" d="M319.275 123.605V126.6L482.466 32.9947V30L319.275 123.605Z" fill="#161415"/>
<path fill-rule="evenodd" clip-rule="evenodd" d="M319.275 64.2239V67.2L482.466 -25.8239V-28.8L319.275 64.2239Z" fill="#161415"/>
<path fill-rule="evenodd" clip-rule="evenodd" d="M319.275 129.605V132.6L482.466 39.003V36L319.275 129.605Z" fill="#161415"/>
<path fill-rule="evenodd" clip-rule="evenodd" d="M319.275 70.2239V73.2L482.466 -19.8157V-22.8L319.275 70.2239Z" fill="#161415"/>
<path fill-rule="evenodd" clip-rule="evenodd" d="M319.275 135.605V138.6L482.466 44.9947V42L319.275 135.605Z" fill="#161415"/>
<path fill-rule="evenodd" clip-rule="evenodd" d="M319.275 76.2239V79.2L482.466 -13.8239V-16.8L319.275 76.2239Z" fill="#161415"/>
<path fill-rule="evenodd" clip-rule="evenodd" d="M319.275 141.597V144.6L482.466 50.9947V48L319.275 141.597Z" fill="#161415"/>
<path fill-rule="evenodd" clip-rule="evenodd" d="M319.275 82.197V85.2L482.466 -8.40529V-11.4L319.275 82.197Z" fill="#161415"/>
<path fill-rule="evenodd" clip-rule="evenodd" d="M329.695 148.024V151L492.886 57.9761V55L329.695 148.024Z" fill="#161415"/>
<path fill-rule="evenodd" clip-rule="evenodd" d="M371.086 143.024V146L534.277 52.9761V50L371.086 143.024Z" fill="#161415"/>
<path fill-rule="evenodd" clip-rule="evenodd" d="M341.684 147.024V150L504.874 56.9761V54L341.684 147.024Z" fill="#161415"/>
<path fill-rule="evenodd" clip-rule="evenodd" d="M383.074 142.024V145L546.265 51.9761V49L383.074 142.024Z" fill="#161415"/>
<path fill-rule="evenodd" clip-rule="evenodd" d="M399.629 139.024V142L562.82 48.9761V46L399.629 139.024Z" fill="#161415"/>
<path fill-rule="evenodd" clip-rule="evenodd" d="M319.275 88.2053V91.2L482.466 -2.40529V-5.39999L319.275 88.2053Z" fill="#161415"/>
<path fill-rule="evenodd" clip-rule="evenodd" d="M319.275 94.197V97.2L482.466 3.59471V0.600006L319.275 94.197Z" fill="#161415"/>
<path fill-rule="evenodd" clip-rule="evenodd" d="M319.275 100.205V103.2L482.466 9.60297V6.60001L319.275 100.205Z" fill="#161415"/>
<path fill-rule="evenodd" clip-rule="evenodd" d="M319.275 105.624V108.6L482.466 15.5761V12.6L319.275 105.624Z" fill="#161415"/>
<path fill-rule="evenodd" clip-rule="evenodd" d="M319.275 111.624V114.6L482.466 21.5843V18.6L319.275 111.624Z" fill="#161415"/>
<path fill-rule="evenodd" clip-rule="evenodd" d="M319.275 117.624V120.6L482.466 27.5761V24.6L319.275 117.624Z" fill="#161415"/>
<path fill-rule="evenodd" clip-rule="evenodd" d="M319.275 147.616V150.6L482.466 57.5761V54.6L319.275 147.616Z" fill="#161415"/>
<path fill-rule="evenodd" clip-rule="evenodd" d="M360.666 142.616V145.6L523.857 52.5761V49.6L360.666 142.616Z" fill="#161415"/>
<path fill-rule="evenodd" clip-rule="evenodd" d="M319.275 225.024V228L482.466 134.984V132L319.275 225.024Z" fill="#161415"/>
<path fill-rule="evenodd" clip-rule="evenodd" d="M319.275 231.024V234L482.466 140.976V138L319.275 231.024Z" fill="#161415"/>
<path fill-rule="evenodd" clip-rule="evenodd" d="M319.275 237.016V240L482.466 146.976V144L319.275 237.016Z" fill="#161415"/>
<path fill-rule="evenodd" clip-rule="evenodd" d="M319.275 243.005V246L482.466 152.403V149.4L319.275 243.005Z" fill="#161415"/>
<path fill-rule="evenodd" clip-rule="evenodd" d="M319.275 249.005V252L482.466 158.395V155.4L319.275 249.005Z" fill="#161415"/>
<path fill-rule="evenodd" clip-rule="evenodd" d="M319.275 225.024V228L482.466 134.976V132L319.275 225.024Z" fill="#161415"/>
<path fill-rule="evenodd" clip-rule="evenodd" d="M319.275 231.024V234L482.466 140.976V138L319.275 231.024Z" fill="#161415"/>
<path fill-rule="evenodd" clip-rule="evenodd" d="M319.275 237.024V240L482.466 146.984V144L319.275 237.024Z" fill="#161415"/>
<path fill-rule="evenodd" clip-rule="evenodd" d="M319.275 243.024V246L482.466 152.976V150L319.275 243.024Z" fill="#161415"/>
<path fill-rule="evenodd" clip-rule="evenodd" d="M-43.1543 7.22391V10.2L120.036 -82.8157V-85.8L-43.1543 7.22391Z" fill="#161415"/>
<path fill-rule="evenodd" clip-rule="evenodd" d="M-43.1543 13.2239V16.2L120.036 -76.8239V-79.8L-43.1543 13.2239Z" fill="#161415"/>
<path fill-rule="evenodd" clip-rule="evenodd" d="M-43.1543 19.2239V22.2L120.036 -70.8157V-73.8L-43.1543 19.2239Z" fill="#161415"/>
<path fill-rule="evenodd" clip-rule="evenodd" d="M-43.1543 25.2239V28.2L120.036 -64.8239V-67.8L-43.1543 25.2239Z" fill="#161415"/>
<path fill-rule="evenodd" clip-rule="evenodd" d="M-43.1543 31.2159V34.2L120.036 -58.8159V-61.8L-43.1543 31.2159Z" fill="#161415"/>
<path fill-rule="evenodd" clip-rule="evenodd" d="M-43.1543 37.2239V40.2L120.036 -52.8239V-55.8L-43.1543 37.2239Z" fill="#161415"/>
<path fill-rule="evenodd" clip-rule="evenodd" d="M-43.1543 43.2157V46.2L120.036 -46.8239V-49.8L-43.1543 43.2157Z" fill="#161415"/>
<path fill-rule="evenodd" clip-rule="evenodd" d="M-43.1543 49.2052V52.2L120.036 -41.4053V-44.4L-43.1543 49.2052Z" fill="#161415"/>
<path fill-rule="evenodd" clip-rule="evenodd" d="M-43.1543 55.2052V58.2L120.036 -35.4053V-38.4L-43.1543 55.2052Z" fill="#161415"/>
<path fill-rule="evenodd" clip-rule="evenodd" d="M-43.1543 61.2053V64.2L120.036 -29.397V-32.4L-43.1543 61.2053Z" fill="#161415"/>
<path fill-rule="evenodd" clip-rule="evenodd" d="M-43.1543 67.2053V70.2L120.036 -23.4053V-26.4L-43.1543 67.2053Z" fill="#161415"/>
<path fill-rule="evenodd" clip-rule="evenodd" d="M-43.1543 7.82389V10.8L120.036 -82.2239V-85.2L-43.1543 7.82389Z" fill="#161415"/>
<path fill-rule="evenodd" clip-rule="evenodd" d="M-43.1543 73.197V76.2L120.036 -17.4053V-20.4L-43.1543 73.197Z" fill="#161415"/>
<path fill-rule="evenodd" clip-rule="evenodd" d="M-43.1543 13.797V16.8L120.036 -76.8053V-79.8L-43.1543 13.797Z" fill="#161415"/>
<path fill-rule="evenodd" clip-rule="evenodd" d="M-43.1543 78.6239V81.6L120.036 -11.4239V-14.4L-43.1543 78.6239Z" fill="#161415"/>
<path fill-rule="evenodd" clip-rule="evenodd" d="M-43.1543 19.8053V22.8L120.036 -70.8053V-73.8L-43.1543 19.8053Z" fill="#161415"/>
<path fill-rule="evenodd" clip-rule="evenodd" d="M-43.1543 84.6157V87.6L120.036 -5.42389V-8.39999L-43.1543 84.6157Z" fill="#161415"/>
<path fill-rule="evenodd" clip-rule="evenodd" d="M-43.1543 25.797V28.8L120.036 -64.8053V-67.8L-43.1543 25.797Z" fill="#161415"/>
<path fill-rule="evenodd" clip-rule="evenodd" d="M-43.1543 90.6239V93.6L120.036 0.584306V-2.4L-43.1543 90.6239Z" fill="#161415"/>
<path fill-rule="evenodd" clip-rule="evenodd" d="M-43.1543 31.8053V34.8L120.036 -58.797V-61.8L-43.1543 31.8053Z" fill="#161415"/>
<path fill-rule="evenodd" clip-rule="evenodd" d="M-43.1543 96.6239V99.6L120.036 6.57611V3.60001L-43.1543 96.6239Z" fill="#161415"/>
<path fill-rule="evenodd" clip-rule="evenodd" d="M-43.1543 37.2239V40.2L120.036 -52.8239V-55.8L-43.1543 37.2239Z" fill="#161415"/>
<path fill-rule="evenodd" clip-rule="evenodd" d="M-43.1543 102.624V105.6L120.036 12.5843V9.60001L-43.1543 102.624Z" fill="#161415"/>
<path fill-rule="evenodd" clip-rule="evenodd" d="M-43.1543 43.2239V46.2L120.036 -46.8157V-49.8L-43.1543 43.2239Z" fill="#161415"/>
<path fill-rule="evenodd" clip-rule="evenodd" d="M-43.1543 108.624V111.6L120.036 18.5761V15.6L-43.1543 108.624Z" fill="#161415"/>
<path fill-rule="evenodd" clip-rule="evenodd" d="M-43.1543 49.2239V52.2L120.036 -40.8239V-43.8L-43.1543 49.2239Z" fill="#161415"/>
<path fill-rule="evenodd" clip-rule="evenodd" d="M-43.1543 138.616V141.6L120.036 48.5761V45.6L-43.1543 138.616Z" fill="#161415"/>
<path fill-rule="evenodd" clip-rule="evenodd" d="M-43.1543 79.2157V82.2L120.036 -10.8239V-13.8L-43.1543 79.2157Z" fill="#161415"/>
<path fill-rule="evenodd" clip-rule="evenodd" d="M-43.1543 144.624V147.6L120.036 54.5843V51.6L-43.1543 144.624Z" fill="#161415"/>
<path fill-rule="evenodd" clip-rule="evenodd" d="M-43.1543 85.2239V88.2L120.036 -4.81567V-7.8L-43.1543 85.2239Z" fill="#161415"/>
<path fill-rule="evenodd" clip-rule="evenodd" d="M-43.1543 150.624V153.6L120.036 60.5761V57.6L-43.1543 150.624Z" fill="#161415"/>
<path fill-rule="evenodd" clip-rule="evenodd" d="M-43.1543 91.2239V94.2L120.036 1.1761V-1.8L-43.1543 91.2239Z" fill="#161415"/>
<path fill-rule="evenodd" clip-rule="evenodd" d="M-43.1543 156.624V159.6L120.036 66.5843V63.6L-43.1543 156.624Z" fill="#161415"/>
<path fill-rule="evenodd" clip-rule="evenodd" d="M-43.1543 97.2239V100.2L120.036 7.18433V4.2L-43.1543 97.2239Z" fill="#161415"/>
<path fill-rule="evenodd" clip-rule="evenodd" d="M-43.1543 162.624V165.6L120.036 72.5761V69.6L-43.1543 162.624Z" fill="#161415"/>
<path fill-rule="evenodd" clip-rule="evenodd" d="M-43.1543 103.224V106.2L120.036 13.1761V10.2L-43.1543 103.224Z" fill="#161415"/>
<path fill-rule="evenodd" clip-rule="evenodd" d="M-43.1543 109.216V112.2L120.036 19.1761V16.2L-43.1543 109.216Z" fill="#161415"/>
<path fill-rule="evenodd" clip-rule="evenodd" d="M-43.1543 115.224V118.2L120.036 25.1843V22.2L-43.1543 115.224Z" fill="#161415"/>
<path fill-rule="evenodd" clip-rule="evenodd" d="M-43.1543 121.224V124.2L120.036 31.1761V28.2L-43.1543 121.224Z" fill="#161415"/>
<path fill-rule="evenodd" clip-rule="evenodd" d="M-43.1543 127.224V130.2L120.036 37.1843V34.2L-43.1543 127.224Z" fill="#161415"/>
<path fill-rule="evenodd" clip-rule="evenodd" d="M-43.1543 133.205V136.2L120.036 42.5947V39.6L-43.1543 133.205Z" fill="#161415"/>
<path fill-rule="evenodd" clip-rule="evenodd" d="M-43.1543 139.197V142.2L120.036 48.6027V45.6L-43.1543 139.197Z" fill="#161415"/>
<path fill-rule="evenodd" clip-rule="evenodd" d="M-43.1543 145.205V148.2L120.036 54.5947V51.6L-43.1543 145.205Z" fill="#161415"/>
<path fill-rule="evenodd" clip-rule="evenodd" d="M-43.1543 151.197V154.2L120.036 60.5947V57.6L-43.1543 151.197Z" fill="#161415"/>
<path fill-rule="evenodd" clip-rule="evenodd" d="M-43.1543 156.624V159.6L120.036 66.5761V63.6L-43.1543 156.624Z" fill="#161415"/>
<path fill-rule="evenodd" clip-rule="evenodd" d="M-43.1543 162.624V165.6L120.036 72.5761V69.6L-43.1543 162.624Z" fill="#161415"/>
<path fill-rule="evenodd" clip-rule="evenodd" d="M255.699 4.2239V7.2L418.89 -85.8157V-88.8L255.699 4.2239Z" fill="#161415"/>
<path fill-rule="evenodd" clip-rule="evenodd" d="M255.699 10.2239V13.2L418.89 -79.8239V-82.8L255.699 10.2239Z" fill="#161415"/>
<path fill-rule="evenodd" clip-rule="evenodd" d="M255.699 16.2239V19.2L418.89 -73.8157V-76.8L255.699 16.2239Z" fill="#161415"/>
<path fill-rule="evenodd" clip-rule="evenodd" d="M255.699 22.2239V25.2L418.89 -67.8239V-70.8L255.699 22.2239Z" fill="#161415"/>
<path fill-rule="evenodd" clip-rule="evenodd" d="M255.699 28.216V31.2L418.89 -61.8159V-64.8L255.699 28.216Z" fill="#161415"/>
<path fill-rule="evenodd" clip-rule="evenodd" d="M255.699 34.2239V37.2L418.89 -55.8239V-58.8L255.699 34.2239Z" fill="#161415"/>
<path fill-rule="evenodd" clip-rule="evenodd" d="M255.699 40.2157V43.2L418.89 -49.8239V-52.8L255.699 40.2157Z" fill="#161415"/>
<path fill-rule="evenodd" clip-rule="evenodd" d="M255.699 46.2052V49.2L418.89 -44.4053V-47.4L255.699 46.2052Z" fill="#161415"/>
<path fill-rule="evenodd" clip-rule="evenodd" d="M255.699 52.2052V55.2L418.89 -38.4053V-41.4L255.699 52.2052Z" fill="#161415"/>
<path fill-rule="evenodd" clip-rule="evenodd" d="M255.699 58.2053V61.2L418.89 -32.397V-35.4L255.699 58.2053Z" fill="#161415"/>
<path fill-rule="evenodd" clip-rule="evenodd" d="M255.699 64.2053V67.2L418.89 -26.4053V-29.4L255.699 64.2053Z" fill="#161415"/>
<path fill-rule="evenodd" clip-rule="evenodd" d="M255.699 4.8239V7.8L418.89 -85.2239V-88.2L255.699 4.8239Z" fill="#161415"/>
<path fill-rule="evenodd" clip-rule="evenodd" d="M255.699 70.197V73.2L418.89 -20.4053V-23.4L255.699 70.197Z" fill="#161415"/>
<path fill-rule="evenodd" clip-rule="evenodd" d="M255.699 10.797V13.8L418.89 -79.8053V-82.8L255.699 10.797Z" fill="#161415"/>
<path fill-rule="evenodd" clip-rule="evenodd" d="M255.699 75.6239V78.6L418.89 -14.4239V-17.4L255.699 75.6239Z" fill="#161415"/>
<path fill-rule="evenodd" clip-rule="evenodd" d="M255.699 16.8053V19.8L418.89 -73.8053V-76.8L255.699 16.8053Z" fill="#161415"/>
<path fill-rule="evenodd" clip-rule="evenodd" d="M255.699 81.6157V84.6L418.89 -8.4239V-11.4L255.699 81.6157Z" fill="#161415"/>
<path fill-rule="evenodd" clip-rule="evenodd" d="M255.699 22.797V25.8L418.89 -67.8053V-70.8L255.699 22.797Z" fill="#161415"/>
<path fill-rule="evenodd" clip-rule="evenodd" d="M255.699 87.6239V90.6L418.89 -2.41569V-5.4L255.699 87.6239Z" fill="#161415"/>
<path fill-rule="evenodd" clip-rule="evenodd" d="M255.699 28.8053V31.8L418.89 -61.797V-64.8L255.699 28.8053Z" fill="#161415"/>
<path fill-rule="evenodd" clip-rule="evenodd" d="M255.699 93.6239V96.6L418.89 3.5761V0.599998L255.699 93.6239Z" fill="#161415"/>
<path fill-rule="evenodd" clip-rule="evenodd" d="M255.699 34.2239V37.2L418.89 -55.8239V-58.8L255.699 34.2239Z" fill="#161415"/>
<path fill-rule="evenodd" clip-rule="evenodd" d="M255.699 99.6239V102.6L418.89 9.58432V6.59999L255.699 99.6239Z" fill="#161415"/>
<path fill-rule="evenodd" clip-rule="evenodd" d="M255.699 40.2239V43.2L418.89 -49.8157V-52.8L255.699 40.2239Z" fill="#161415"/>
<path fill-rule="evenodd" clip-rule="evenodd" d="M255.699 105.624V108.6L418.89 15.5761V12.6L255.699 105.624Z" fill="#161415"/>
<path fill-rule="evenodd" clip-rule="evenodd" d="M255.699 46.2239V49.2L418.89 -43.8239V-46.8L255.699 46.2239Z" fill="#161415"/>
<path fill-rule="evenodd" clip-rule="evenodd" d="M255.699 135.616V138.6L418.89 45.5761V42.6L255.699 135.616Z" fill="#161415"/>
<path fill-rule="evenodd" clip-rule="evenodd" d="M255.699 76.2157V79.2L418.89 -13.8239V-16.8L255.699 76.2157Z" fill="#161415"/>
<path fill-rule="evenodd" clip-rule="evenodd" d="M255.699 141.624V144.6L418.89 51.5843V48.6L255.699 141.624Z" fill="#161415"/>
<path fill-rule="evenodd" clip-rule="evenodd" d="M255.699 82.2239V85.2L418.89 -7.81567V-10.8L255.699 82.2239Z" fill="#161415"/>
<path fill-rule="evenodd" clip-rule="evenodd" d="M255.699 147.624V150.6L418.89 57.5761V54.6L255.699 147.624Z" fill="#161415"/>
<path fill-rule="evenodd" clip-rule="evenodd" d="M255.699 88.2239V91.2L418.89 -1.82389V-4.8L255.699 88.2239Z" fill="#161415"/>
<path fill-rule="evenodd" clip-rule="evenodd" d="M255.699 153.624V156.6L418.89 63.5843V60.6L255.699 153.624Z" fill="#161415"/>
<path fill-rule="evenodd" clip-rule="evenodd" d="M255.699 94.2239V97.2L418.89 4.18433V1.2L255.699 94.2239Z" fill="#161415"/>
<path fill-rule="evenodd" clip-rule="evenodd" d="M255.699 159.624V162.6L418.89 69.5761V66.6L255.699 159.624Z" fill="#161415"/>
<path fill-rule="evenodd" clip-rule="evenodd" d="M255.699 100.224V103.2L418.89 10.1761V7.20001L255.699 100.224Z" fill="#161415"/>
<path fill-rule="evenodd" clip-rule="evenodd" d="M255.699 165.616V168.6L418.89 75.5761V72.6L255.699 165.616Z" fill="#161415"/>
<path fill-rule="evenodd" clip-rule="evenodd" d="M255.699 106.216V109.2L418.89 16.1761V13.2L255.699 106.216Z" fill="#161415"/>
<path fill-rule="evenodd" clip-rule="evenodd" d="M255.699 171.605V174.6L418.89 81.003V78L255.699 171.605Z" fill="#161415"/>
<path fill-rule="evenodd" clip-rule="evenodd" d="M255.699 112.224V115.2L418.89 22.1843V19.2L255.699 112.224Z" fill="#161415"/>
<path fill-rule="evenodd" clip-rule="evenodd" d="M255.699 177.605V180.6L418.89 86.9947V84L255.699 177.605Z" fill="#161415"/>
<path fill-rule="evenodd" clip-rule="evenodd" d="M255.699 118.224V121.2L418.89 28.1761V25.2L255.699 118.224Z" fill="#161415"/>
<path fill-rule="evenodd" clip-rule="evenodd" d="M255.699 124.224V127.2L418.89 34.1843V31.2L255.699 124.224Z" fill="#161415"/>
<path fill-rule="evenodd" clip-rule="evenodd" d="M255.699 130.205V133.2L418.89 39.5947V36.6L255.699 130.205Z" fill="#161415"/>
<path fill-rule="evenodd" clip-rule="evenodd" d="M255.699 136.197V139.2L418.89 45.6027V42.6L255.699 136.197Z" fill="#161415"/>
<path fill-rule="evenodd" clip-rule="evenodd" d="M255.699 142.205V145.2L418.89 51.5947V48.6L255.699 142.205Z" fill="#161415"/>
<path fill-rule="evenodd" clip-rule="evenodd" d="M255.699 148.197V151.2L418.89 57.5947V54.6L255.699 148.197Z" fill="#161415"/>
<path fill-rule="evenodd" clip-rule="evenodd" d="M255.699 153.624V156.6L418.89 63.5761V60.6L255.699 153.624Z" fill="#161415"/>
<path fill-rule="evenodd" clip-rule="evenodd" d="M255.699 159.624V162.6L418.89 69.5761V66.6L255.699 159.624Z" fill="#161415"/>
<path fill-rule="evenodd" clip-rule="evenodd" d="M255.699 165.624V168.6L418.89 75.5843V72.6L255.699 165.624Z" fill="#161415"/>
<path fill-rule="evenodd" clip-rule="evenodd" d="M255.699 171.624V174.6L418.89 81.5761V78.6L255.699 171.624Z" fill="#161415"/>
<path fill-rule="evenodd" clip-rule="evenodd" d="M255.699 177.616V180.6L418.89 87.5761V84.6L255.699 177.616Z" fill="#161415"/>
<path fill-rule="evenodd" clip-rule="evenodd" d="M126.042 106.765C115.307 110.436 115.519 94.0641 126.042 97.781V100.722C119.816 96.5268 119.741 107.974 126.042 103.846V106.765ZM134.449 99.9244H132.232V106.97H129.056V99.9928H126.815V97.5757H134.449V99.9928V99.9244ZM143.876 100.722C143.976 103.436 141.161 103.972 138.67 103.789V106.97H135.482V97.5073C138.396 97.5871 144.05 96.6978 143.876 100.722ZM140.613 100.665C140.7 99.742 139.58 99.5253 138.67 99.6508V101.692C139.58 101.76 140.7 101.589 140.613 100.665ZM156.218 102.273C156.504 108.874 144.362 108.874 144.648 102.273C144.362 95.6831 156.504 95.6717 156.218 102.273ZM152.893 102.273C153.03 99.2175 147.824 99.2175 147.911 102.273C147.787 105.329 152.98 105.329 152.893 102.273ZM167.588 107.005H164.412V101.692L160.539 106.993H157.525V97.5187H160.714V102.923L164.587 97.5187H167.588V106.993V107.005ZM176.306 99.9586H174.039V107.005H170.863V99.9928H168.622V97.5757H176.243V99.9928L176.306 99.9586ZM183.865 107.005H177.277V97.5415H183.803V99.913H180.465V101.133H183.566V103.413H180.465V104.679H183.815V107.05L183.865 107.005ZM194.338 107.005H191.088V99.913H189.046C189.22 103.151 189.519 108.361 184.251 106.993L184.45 104.599C187.252 105.921 185.534 98.5676 185.982 97.5415H194.276V107.005H194.338ZM204.588 103.869C204.65 107.791 199.021 106.936 196.169 107.005V97.5415H199.357V100.962C201.661 100.802 204.65 101.338 204.588 103.903V103.869ZM201.4 103.949C201.499 103.026 200.242 102.923 199.357 102.98V104.93C200.242 104.987 201.499 104.93 201.4 103.949ZM215.522 107.005H212.334V103.254H208.984V107.005H205.808V97.5415H208.984V101.133H212.272V97.5757H215.46V107.039L215.522 107.005ZM229.308 107.005H226.133V97.5415H229.308V107.005ZM225.485 103.869C225.547 107.7 220.143 106.959 217.328 107.005V97.5415H220.516V100.962C222.77 100.802 225.498 101.452 225.498 103.903L225.485 103.869ZM222.359 103.949C222.434 103.128 221.413 102.912 220.516 102.98V104.93C221.425 104.998 222.434 104.77 222.359 103.949ZM239.072 94.6C239.072 97.724 233.182 97.7126 233.219 94.6H235.162C235.146 94.7276 235.16 94.8567 235.203 94.979C235.245 95.1013 235.316 95.214 235.409 95.3097C235.502 95.4054 235.617 95.482 235.745 95.5344C235.873 95.5868 236.012 95.6139 236.152 95.6139C236.292 95.6139 236.431 95.5868 236.559 95.5344C236.687 95.482 236.801 95.4054 236.895 95.3097C236.988 95.214 237.058 95.1013 237.101 94.979C237.144 94.8567 237.157 94.7276 237.142 94.6H239.072ZM241.177 107.005H238.001V101.692L234.153 107.005H231.114V97.5301H234.302V102.934L238.175 97.5301H241.177V107.005Z" fill="white"/>
<path fill-rule="evenodd" clip-rule="evenodd" d="M266.79 106.887H263.627L262.979 102.623L260.999 106.887H259.318L257.388 102.623L256.703 106.887H253.465L254.997 98.5417H258.446L260.152 102.794L261.896 98.5417H265.358L266.79 106.887ZM277.924 106.887L274.449 98.5417H270.24L266.79 106.887H270.153L270.726 105.325H273.989L274.549 106.887H277.924ZM273.316 103.467H271.373L272.345 100.822L273.328 103.467H273.316ZM285.023 100.605H281.859V106.865H278.684V98.5189H285.035V100.605H285.023ZM294.985 106.865L291.511 98.5189H287.302L283.815 106.865H287.202L287.775 105.303H291.038L291.598 106.865H294.985ZM290.378 103.444H288.422L289.394 100.799L290.378 103.444ZM303.404 104.516C303.08 107.777 297.389 107.537 295.172 106.135L296.281 104.379C298.771 106.534 302.433 103.239 297.526 103.524V101.688C302.059 101.882 299.058 99.0434 296.281 100.765L295.434 99.0319C298.398 96.7517 306.642 99.5792 301.486 102.452C302.732 102.851 303.367 103.478 303.354 104.482L303.404 104.516ZM314.849 106.876H311.624V102.236L307.775 106.922H304.787V98.5645H307.962V103.33L311.835 98.5645H314.849V106.922V106.876ZM326.307 106.876H323.131V103.57H319.843V106.876H316.605V98.5303H319.843V101.666H323.131V98.5303H326.307V106.876Z" fill="white"/>
<path fill-rule="evenodd" clip-rule="evenodd" d="M113.838 58.2488H105.392V85.2536H93.2004V58.2488H84.6465V49.033H113.838V58.2488Z" fill="#FBBA00"/>
<path fill-rule="evenodd" clip-rule="evenodd" d="M156.303 85.27H144.129V64.8929L129.38 85.27H117.783V49H129.957V69.7069L144.796 49H156.303V85.27ZM199.991 85.27H187.817V58.117H175.427V85.27H163.236V49H199.991V85.27Z" fill="#FBBA00"/>
<path fill-rule="evenodd" clip-rule="evenodd" d="M254.633 58.4485H246.169V85.4532H233.995V58.4485H225.441V49.2326H254.633V58.4485Z" fill="#FBBA00"/>
<path fill-rule="evenodd" clip-rule="evenodd" d="M353.985 85.4532H341.811V58.3166H329.422V85.4532H317.248V49.2326H353.985V85.4532Z" fill="#FBBA00"/>
<path fill-rule="evenodd" clip-rule="evenodd" d="M296.845 52.431C298.448 54.8545 305.165 65.2739 307.344 68.9174C312.602 74.7865 303.742 79.8644 301.689 85.5192H305.453C307.704 82.2219 309.883 77.9519 312.278 74.8525C313.611 71.8355 313.863 73.3522 311 68.7031C308.515 64.7463 302.734 55.7942 300.429 51.887C298.25 48.3918 298.628 49.2326 289.084 49.2326C267.69 49.8426 271.292 44.6824 260.559 62.9328C254.274 73.0225 253.662 71.5058 256.237 75.6274L262.432 85.5192H266.267C263.134 80.5733 259.442 74.9349 258.542 73.1709C260.631 67.1698 267.852 57.888 271.148 52.2167C274.605 52.1343 295.459 51.7386 296.845 52.431Z" fill="#FBBA00"/>
<path fill-rule="evenodd" clip-rule="evenodd" d="M289.516 69.0988C294.522 74.4404 284.887 82.8484 279.089 77.1112C272.264 70.7309 283.897 61.548 289.516 69.0988ZM278.134 82.9308C289.317 88.223 301.149 76.056 294.648 66.4445C282.06 50.7824 260.306 73.1379 278.134 82.9308Z" fill="#FBBA00"/>
<path fill-rule="evenodd" clip-rule="evenodd" d="M203.556 72.7734C209.571 77.8842 207.464 64.3818 207.356 62.321C201.269 57.1938 203.232 70.6302 203.556 72.7734Z" fill="#FBBA00"/>
<path fill-rule="evenodd" clip-rule="evenodd" d="M222.032 67.3658C221.348 66.2071 220.242 65.3049 218.905 64.8168C217.569 64.3287 216.088 64.2856 214.721 64.695C215.981 66.2447 217.746 68.2561 219.223 69.7563C219.871 69.6079 221.492 67.8274 222.032 67.3658Z" fill="#FBBA00"/>
<path fill-rule="evenodd" clip-rule="evenodd" d="M218.375 69.9377C216.286 68.0417 214.774 63.8872 211.172 64.695C212.652 66.5516 214.239 68.3346 215.926 70.0366L218.375 69.9377Z" fill="#FBBA00"/>
<path fill-rule="evenodd" clip-rule="evenodd" d="M215.065 70.0696C213.553 68.9815 211.212 63.7389 208.564 64.8764C209.573 66.3602 212.094 71.1248 215.065 70.0696Z" fill="#FBBA00"/>
<path fill-rule="evenodd" clip-rule="evenodd" d="M211.82 70.1521C210.86 68.8566 209.775 67.6427 208.578 66.525V70.1191L211.82 70.1521Z" fill="#FBBA00"/>
</g>
<path d="M6 132.407V6H431.6V132.407L218.8 162L6 132.407Z" stroke="#FFD45A" stroke-width="12"/>
<defs>
<clipPath id="clip0_555_4572">
<rect width="426" height="150" fill="white" transform="translate(6 6)"/>
</clipPath>
</defs>
</svg>
