<svg width="23" height="17" viewBox="0 0 23 17" fill="none" xmlns="http://www.w3.org/2000/svg">
<path d="M11.2939 10.9434V13H2.07422V10.9434H11.2939ZM2.85645 10.9434V16.1377H0.37793L0.237305 10.9434H2.85645ZM13.1924 10.9434L12.9639 16.1465H10.5469V10.9434H13.1924ZM9.84375 0.203125V2.26855H3.68262V0.203125H9.84375ZM11.7246 0.203125V13H9.09668V0.203125H11.7246ZM3.35742 0.203125H5.99414L5.65137 5.41504C5.59863 6.27637 5.50488 7.03809 5.37012 7.7002C5.24121 8.35645 5.08301 8.93359 4.89551 9.43164C4.71387 9.92969 4.51172 10.3662 4.28906 10.7412C4.06641 11.1104 3.83203 11.4326 3.58594 11.708C3.33984 11.9775 3.09082 12.2178 2.83887 12.4287C2.58691 12.6338 2.34082 12.8242 2.10059 13H0.588867V10.9434H1.17773C1.34766 10.8027 1.52637 10.6094 1.71387 10.3633C1.90723 10.1172 2.08887 9.78613 2.25879 9.37012C2.43457 8.94824 2.58691 8.41504 2.71582 7.77051C2.85059 7.12598 2.9502 6.34082 3.01465 5.41504L3.35742 0.203125ZM13.9922 8.3418V8.15723C13.9922 7.45996 14.0918 6.81836 14.291 6.23242C14.4902 5.64062 14.7803 5.12793 15.1611 4.69434C15.542 4.26074 16.0107 3.92383 16.5674 3.68359C17.124 3.4375 17.7627 3.31445 18.4834 3.31445C19.2041 3.31445 19.8457 3.4375 20.4082 3.68359C20.9707 3.92383 21.4424 4.26074 21.8232 4.69434C22.21 5.12793 22.5029 5.64062 22.7021 6.23242C22.9014 6.81836 23.001 7.45996 23.001 8.15723V8.3418C23.001 9.0332 22.9014 9.6748 22.7021 10.2666C22.5029 10.8525 22.21 11.3652 21.8232 11.8047C21.4424 12.2383 20.9736 12.5752 20.417 12.8154C19.8604 13.0557 19.2217 13.1758 18.501 13.1758C17.7803 13.1758 17.1387 13.0557 16.5762 12.8154C16.0195 12.5752 15.5479 12.2383 15.1611 11.8047C14.7803 11.3652 14.4902 10.8525 14.291 10.2666C14.0918 9.6748 13.9922 9.0332 13.9922 8.3418ZM16.5234 8.15723V8.3418C16.5234 8.74023 16.5586 9.1123 16.6289 9.45801C16.6992 9.80371 16.8105 10.1084 16.9629 10.3721C17.1211 10.6299 17.3262 10.832 17.5781 10.9785C17.8301 11.125 18.1377 11.1982 18.501 11.1982C18.8525 11.1982 19.1543 11.125 19.4062 10.9785C19.6582 10.832 19.8604 10.6299 20.0127 10.3721C20.165 10.1084 20.2764 9.80371 20.3467 9.45801C20.4229 9.1123 20.4609 8.74023 20.4609 8.3418V8.15723C20.4609 7.77051 20.4229 7.40723 20.3467 7.06738C20.2764 6.72168 20.1621 6.41699 20.0039 6.15332C19.8516 5.88379 19.6494 5.67285 19.3975 5.52051C19.1455 5.36816 18.8408 5.29199 18.4834 5.29199C18.126 5.29199 17.8213 5.36816 17.5693 5.52051C17.3232 5.67285 17.1211 5.88379 16.9629 6.15332C16.8105 6.41699 16.6992 6.72168 16.6289 7.06738C16.5586 7.40723 16.5234 7.77051 16.5234 8.15723Z" fill="#ACACAC"/>
</svg>
