<svg width="22" height="14" viewBox="0 0 22 14" fill="none" xmlns="http://www.w3.org/2000/svg">
<path d="M11.6543 6.30273V6.90918C11.6543 7.88184 11.5225 8.75488 11.2588 9.52832C10.9951 10.3018 10.623 10.9609 10.1426 11.5059C9.66211 12.0449 9.08789 12.458 8.41992 12.7451C7.75781 13.0322 7.02246 13.1758 6.21387 13.1758C5.41113 13.1758 4.67578 13.0322 4.00781 12.7451C3.3457 12.458 2.77148 12.0449 2.28516 11.5059C1.79883 10.9609 1.4209 10.3018 1.15137 9.52832C0.887695 8.75488 0.755859 7.88184 0.755859 6.90918V6.30273C0.755859 5.32422 0.887695 4.45117 1.15137 3.68359C1.41504 2.91016 1.78711 2.25098 2.26758 1.70605C2.75391 1.16113 3.32812 0.745117 3.99023 0.458008C4.6582 0.170898 5.39355 0.0273438 6.19629 0.0273438C7.00488 0.0273438 7.74023 0.170898 8.40234 0.458008C9.07031 0.745117 9.64453 1.16113 10.125 1.70605C10.6113 2.25098 10.9863 2.91016 11.25 3.68359C11.5195 4.45117 11.6543 5.32422 11.6543 6.30273ZM8.99121 6.90918V6.28516C8.99121 5.60547 8.92969 5.00781 8.80664 4.49219C8.68359 3.97656 8.50195 3.54297 8.26172 3.19141C8.02148 2.83984 7.72852 2.57617 7.38281 2.40039C7.03711 2.21875 6.6416 2.12793 6.19629 2.12793C5.75098 2.12793 5.35547 2.21875 5.00977 2.40039C4.66992 2.57617 4.37988 2.83984 4.13965 3.19141C3.90527 3.54297 3.72656 3.97656 3.60352 4.49219C3.48047 5.00781 3.41895 5.60547 3.41895 6.28516V6.90918C3.41895 7.58301 3.48047 8.18066 3.60352 8.70215C3.72656 9.21777 3.9082 9.6543 4.14844 10.0117C4.38867 10.3633 4.68164 10.6299 5.02734 10.8115C5.37305 10.9932 5.76855 11.084 6.21387 11.084C6.65918 11.084 7.05469 10.9932 7.40039 10.8115C7.74609 10.6299 8.03613 10.3633 8.27051 10.0117C8.50488 9.6543 8.68359 9.21777 8.80664 8.70215C8.92969 8.18066 8.99121 7.58301 8.99121 6.90918ZM18.2373 3.49023V13H15.6973V3.49023H18.2373ZM21.2959 3.49023V5.4502H12.6826V3.49023H21.2959Z" fill="#ACACAC"/>
</svg>
